<?xml version="1.0" encoding="utf-8"?>
    <!-- Generator: Adobe Adobe Illustrator 24.2.0, SVG Export Plug-In . SVG Version: 6.00 Build 0)  -->
    <svg version="1.1" id="Layer_1" xmlns="http://www.w3.org/2000/svg" xmlns:xlink="http://www.w3.org/1999/xlink" x="0px" y="0px"
       width="607.63px" height="431.81px" viewBox="0 0 607.63 431.81" style="enable-background:new 0 0 607.63 431.81;"
       xml:space="preserve">
    <style type="text/css">
      .st0{fill:#52E0D9;}
      .st1{fill:#696CDF;}
      .st2{fill:#FF8C00;}
      .st3{fill:#696CDF;stroke:#696CDF;stroke-width:1.9857;stroke-linecap:round;stroke-linejoin:round;stroke-miterlimit:10;}
      .st4{fill:#FFFFFF;}
      .st5{fill:#15043E;}
      .st6{fill:#180041;}
      .st7{font-family: TTNorms-Medium,sans-serif;}
      .st8{font-size:55.8668px;}
      @font-face {
          font-family: TTNorms-Medium,sans-serif;
          src: url('https://img.edvido.com/fonts/TTNorms-Medium.otf');
        }
        text {
          font-family:'TTNorms-Medium,sans-serif';
          font-weight: 500;
        }
    </style>
    <path class="st3" d="M563.95,422.01H43.68c-18.37,0-33.26-14.89-33.26-33.26V43.06c0-18.37,14.89-33.26,33.26-33.26h520.27
      c18.37,0,33.26,14.89,33.26,33.26v345.7C597.21,407.12,582.32,422.01,563.95,422.01z"/>
    <g>
      <circle class="st0" cx="335.1" cy="203.54" r="15.26"/>
      <g>
        <path class="st4" d="M200.55,171.75c-8.67-2.07-17.34-4.82-26.01-8.26c-36.9-14.65-60.61-36.75-63.19-39.22
          c-6.09-5.82-6.3-15.48-0.47-21.56c5.82-6.09,15.48-6.3,21.56-0.47c0.85,0.82,21.3,20.17,53.36,32.91
          c25.02,9.93,49.98,13.01,74.2,9.14c10.18-1.63,30.66-7.82,42.84-20.71c5.78-6.12,15.44-6.4,21.56-0.62
          c6.12,5.78,6.4,15.44,0.62,21.56c-16.63,17.61-42,26.99-60.2,29.89C243.62,177.78,222.1,176.89,200.55,171.75z"/>
        <path class="st4" d="M310.37,148.87c-2.51-0.6-4.91-1.85-6.92-3.75c-6.12-5.78-6.4-15.44-0.62-21.56
          c4.88-5.16,6.99-10.14,6.27-14.8c-0.85-5.52-5.72-11.5-12.42-15.25c-15.99-8.94-34.59-11.38-52.36-6.89
          c-8.17,2.07-16.46-2.88-18.53-11.05c-2.07-8.17,2.88-16.46,11.04-18.53c25.36-6.42,51.89-2.92,74.72,9.83
          c15.05,8.41,25.4,22.34,27.69,37.25c1.52,9.92,0.29,24.98-14.24,40.37C321.13,148.62,315.51,150.09,310.37,148.87z"/>
        <path class="st4" d="M238.13,255.62c-26.26-6.26-48.59-22.3-62.91-45.17c-14.17-22.64-18.87-49.56-13.21-75.8
          c5.66-26.26,21.04-48.84,43.3-63.6c32.09-21.27,72.81-22.86,106.27-4.16c7.35,4.11,9.98,13.4,5.87,20.75
          c-4.11,7.35-13.4,9.98-20.75,5.87c-23.45-13.11-52.01-11.97-74.54,2.96c-32.07,21.26-41.53,65.12-21.09,97.79
          c20.74,33.13,64.76,43.51,98.13,23.14c7.19-4.39,16.57-2.12,20.96,5.07c4.39,7.19,2.12,16.58-5.07,20.96
          c-23.13,14.12-50.39,18.46-76.75,12.23C238.26,255.65,238.19,255.64,238.13,255.62z"/>
      </g>
      <circle class="st2" cx="103.11" cy="79.56" r="15.26"/>
      <g>
        <g>
          <path class="st4" d="M407.97,214.5c-3.76-2.29-8.36-4.19-13.79-5.73s-10.83-3.34-16.2-5.41c-5.38-2.08-9.96-5.5-13.75-10.28
            c-3.79-4.78-5.69-10.83-5.69-18.15c0-9.04,3.62-16.75,10.87-23.14c7.24-6.39,16.66-9.58,28.24-9.58c4.57,0,8.98,0.53,13.24,1.6
            c4.26,1.06,7.75,2.31,10.48,3.74c2.73,1.43,5.12,2.88,7.17,4.36s3.52,2.77,4.4,3.86l1.4,1.56L420,172.51
            c-0.62-0.73-1.49-1.62-2.61-2.69c-1.12-1.06-3.47-2.48-7.05-4.25c-3.58-1.77-7.27-2.65-11.06-2.65c-4.57,0-8.24,1.17-11.02,3.5
            c-2.78,2.34-4.17,5.17-4.17,8.49c0,3.74,1.88,6.74,5.65,9c3.77,2.26,8.33,4.17,13.71,5.73c5.38,1.56,10.78,3.38,16.2,5.45
            s10.04,5.5,13.83,10.28c3.79,4.78,5.69,10.83,5.69,18.15c0,10.33-3.75,18.77-11.26,25.32c-7.5,6.54-17.85,9.81-31.04,9.81
            c-5.19,0-10.22-0.64-15.07-1.91c-4.86-1.27-8.85-2.79-12-4.56c-3.14-1.77-5.91-3.56-8.3-5.37c-2.39-1.82-4.1-3.35-5.14-4.6
            l-1.79-1.95l14.41-14.33c0.73,0.83,1.75,1.91,3.08,3.23s4.27,3.1,8.84,5.34c4.57,2.23,9.35,3.35,14.33,3.35
            c5.76,0,10.27-1.35,13.52-4.05s4.87-6.13,4.87-10.28C413.62,219.8,411.73,216.78,407.97,214.5z"/>
        </g>
        <g>
          <path class="st4" d="M553.74,144.55v21.58h-31.86v90.13h-23.91v-90.13h-31.94v-21.58H553.74z"/>
        </g>
        <g>
          <path class="st4" d="M53.07,256.25v-111.7h47.91c10.13,0,18.5,2.96,25.12,8.88c6.62,5.92,9.93,12.8,9.93,20.64
            c0,2.96-0.42,5.78-1.25,8.45c-0.83,2.67-1.9,4.89-3.19,6.66c-1.3,1.77-2.58,3.28-3.86,4.56c-1.27,1.27-2.32,2.17-3.15,2.69
            l-1.32,0.78c0.52,0.21,1.18,0.51,1.99,0.9c0.8,0.39,2.27,1.35,4.4,2.88c2.13,1.53,4,3.21,5.61,5.02c1.61,1.82,3.08,4.3,4.4,7.44
            c1.32,3.14,1.99,6.5,1.99,10.09c0,8.93-3.56,16.62-10.67,23.06c-7.11,6.44-16.2,9.66-27.26,9.66H53.07z M77.06,164.49v23.99
            h22.28c3.95,0,7.06-1.09,9.35-3.27c2.29-2.18,3.43-5.09,3.43-8.72s-1.14-6.54-3.43-8.72c-2.28-2.18-5.4-3.27-9.35-3.27H77.06z
             M102.54,236.31c4.36,0,7.98-1.38,10.87-4.13s4.32-6.15,4.32-10.2c0-4.05-1.44-7.46-4.32-10.24s-6.5-4.17-10.87-4.17H77.06v28.74
            H102.54z"/>
        </g>
        <g>
          <text transform="matrix(1 0 0 1 47.6044 323.6143)"><tspan x="0" y="0" class="st4 st7 st8">Web Companies</tspan><tspan x="0" y="58.47" class="st4 st7 st8">in Dubai</tspan></text>
        </g>
      </g>
    </g>
    </svg>